<svg width="20" height="20" viewBox="0 0 20 20" fill="none" xmlns="http://www.w3.org/2000/svg">
<path d="M15.625 2.5C15.9807 2.5 16.3329 2.57005 16.6615 2.70616C16.99 2.84227 17.2886 3.04176 17.5401 3.29325C17.7916 3.54474 17.9911 3.84331 18.1272 4.1719C18.2633 4.50049 18.3334 4.85267 18.3334 5.20833V14.7917C18.3334 15.1473 18.2633 15.4995 18.1272 15.8281C17.9911 16.1567 17.7916 16.4553 17.5401 16.7067C17.2886 16.9582 16.99 17.1577 16.6615 17.2938C16.3329 17.4299 15.9807 17.5 15.625 17.5H4.37502C3.65673 17.5 2.96785 17.2147 2.45994 16.7067C1.95203 16.1988 1.66669 15.51 1.66669 14.7917V5.20833C1.66669 4.49004 1.95203 3.80116 2.45994 3.29325C2.96785 2.78534 3.65673 2.5 4.37502 2.5H15.625ZM14.3734 5.41667H5.62335C5.45759 5.41667 5.29862 5.48251 5.18141 5.59972C5.0642 5.71693 4.99835 5.87591 4.99835 6.04167C4.99835 6.20743 5.0642 6.3664 5.18141 6.48361C5.29862 6.60082 5.45759 6.66667 5.62335 6.66667H14.3734C14.5391 6.66667 14.6981 6.60082 14.8153 6.48361C14.9325 6.3664 14.9984 6.20743 14.9984 6.04167C14.9984 5.87591 14.9325 5.71693 14.8153 5.59972C14.6981 5.48251 14.5391 5.41667 14.3734 5.41667Z" fill="black"/>
</svg>
